# xmcd
#
# Track frame offsets:
#	150
#	14795
#	33143
#	49078
#	66652
#	78429
#	88398
#	105231
#	120455
#	134663
#	147406
#	163989
#	179696
#	194134
#	210588
#	226645
#
# Disc length: 3196 seconds
# Revision: 0
# Processed by: cddbd v1.5.2PL0 Copyright (c) Steve Scherf et al.
# Submitted via: dBpowerAMP V12.0
#
DISCID=f00c7a10
DTITLE=6PAIR半 - 6Pair半 and 城市民歌 Blu-spec CD
DYEAR=2010
DGENRE=Chinese Pop
TTITLE0=天各一方
TTITLE1=為什麼
TTITLE2=那一天
TTITLE3=冷雨
TTITLE4=快樂時光
TTITLE5=年青人
TTITLE6=唱不完的故事
TTITLE7=人在社會中
TTITLE8=風箏
TTITLE9=孤想
TTITLE10=昨夜的渡輪上
TTITLE11=問
TTITLE12=歸途
TTITLE13=提岸
TTITLE14=風
TTITLE15=變色的紫花
EXTD=
EXTT0=
EXTT1=
EXTT2=
EXTT3=
EXTT4=
EXTT5=
EXTT6=
EXTT7=
EXTT8=
EXTT9=
EXTT10=
EXTT11=
EXTT12=
EXTT13=
EXTT14=
EXTT15=
PLAYORDER=
